<svg id="Layer_1" data-name="Layer 1" xmlns="http://www.w3.org/2000/svg" viewBox="0 0 601.94 656.4"><defs><style>.cls-1{fill:#fff931;}.cls-2{fill:#241c5d;}</style></defs><title>all stars</title><rect width="601.94" height="583.51" rx="184.8"/><path class="cls-1" d="M429.7,546.52H197.37A138.75,138.75,0,0,1,58.63,407.78V193.87A138.74,138.74,0,0,1,197.37,55.14H429.7A138.73,138.73,0,0,1,568.44,193.87V407.78A138.74,138.74,0,0,1,429.7,546.52" transform="translate(-12.57 -9.07)"/><path d="M417.07,451.2a66.65,66.65,0,0,1-29.82-6.68,64.07,64.07,0,0,1-22.2-18c-4.36-5.49-8.32-12.4-12.39-21.67-2.92-6.66-5.12-11.84-7-16.31l-.32-.81a15.36,15.36,0,0,0-14.28-10H291.8a15.27,15.27,0,0,0-14.25,9.9l-.16.43c-6.84,18.4-13,30.92-19.34,39.35-11.55,15.33-29.71,23.77-51.13,23.77a67.74,67.74,0,0,1-47.52-19.29c-13.76-13.06-21-29.57-21-47.71a81.48,81.48,0,0,1,3.83-24.29c1.72-5.51,4.28-12.44,7.59-20.61l.33-.79L223.42,177.8q3-7.77,7.2-18.4a135.67,135.67,0,0,1,13.5-26.49A78.78,78.78,0,0,1,271,108.14c11.47-6.54,25-9.88,40.12-9.88s28.77,3.34,40.38,9.92A79.5,79.5,0,0,1,378,132.3a127.5,127.5,0,0,1,12.53,23.15c2.19,5.3,4.93,12.25,8.6,21.86L473.9,336.56l.34.82c8.27,19.8,12,34.13,12,46.44,0,17.58-7,33.87-20.24,47.11a67.8,67.8,0,0,1-48.89,20.27" transform="translate(-12.57 -9.07)"/><path d="M472.62,383.82c0,13.9-5.62,26.87-16.25,37.52a54.56,54.56,0,0,1-39.3,16.29,53.26,53.26,0,0,1-23.8-5.27,50.87,50.87,0,0,1-17.54-14.23c-3.63-4.58-7.05-10.6-10.65-18.76-2.87-6.56-5-11.63-6.82-16l-.25-.64a28.93,28.93,0,0,0-26.91-18.55H291.8a28.92,28.92,0,0,0-27,18.73l-.16.4c-6.38,17.17-11.93,28.6-17.47,35.95-6.31,8.37-18.42,18.37-40.28,18.37a54.46,54.46,0,0,1-38.15-15.53c-11-10.46-16.84-23.57-16.84-37.91A67.78,67.78,0,0,1,155.14,364c1.62-5.16,4-11.74,7.23-19.56l.21-.53,73.35-160.8q3-7.87,7.32-18.7a122.93,122.93,0,0,1,12.13-23.89A65.18,65.18,0,0,1,277.68,120c9.41-5.37,20.7-8.12,33.44-8.12s24.14,2.73,33.67,8.14a65.87,65.87,0,0,1,22.07,20A113.08,113.08,0,0,1,378,160.64c2.18,5.27,4.93,12.29,8.65,22l74.82,159.43.23.55c7.54,18.07,10.91,30.78,10.91,41.21" transform="translate(-12.57 -9.07)"/><path class="cls-2" d="M417.07,420a35.77,35.77,0,0,1-16-3.45,33.33,33.33,0,0,1-11.49-9.31c-2.71-3.42-5.43-8.3-8.37-15-2.54-5.79-4.7-10.85-6.59-15.44l-.18-.47a46.64,46.64,0,0,0-43.36-29.79H291.8a46.64,46.64,0,0,0-43.44,30l-.21.57c-5.69,15.31-10.61,25.61-15,31.48-5.68,7.53-14.49,11.35-26.2,11.35a36.67,36.67,0,0,1-26-10.66c-7.55-7.18-11.37-15.63-11.37-25.15a50.13,50.13,0,0,1,2.4-14.94c1.51-4.78,3.83-11.08,6.73-18.19l.1-.24,73.4-160.9.19-.49q2.66-6.88,6.27-16l1-2.57A105.44,105.44,0,0,1,270,150.33a47.57,47.57,0,0,1,16.32-15c6.84-3.91,15.15-5.87,24.79-5.87s18.13,2,25,5.85a48.61,48.61,0,0,1,16.28,14.73,95.75,95.75,0,0,1,9.35,17.33c2,4.84,4.54,11.28,8.48,21.56l.23.6,74.93,159.67.09.21C452,365,455,375.94,455,383.82c0,9.25-3.73,17.68-11.1,25.06A36.76,36.76,0,0,1,417.07,420" transform="translate(-12.57 -9.07)"/><path class="cls-1" d="M316.74,200.93l12.51,25.35a5.29,5.29,0,0,0,4,2.89l28,4.06a5.3,5.3,0,0,1,2.94,9L343.9,262a5.27,5.27,0,0,0-1.52,4.68l4.77,27.86a5.29,5.29,0,0,1-7.67,5.58l-25-13.16a5.28,5.28,0,0,0-4.92,0l-25,13.16a5.29,5.29,0,0,1-7.67-5.58l4.78-27.86a5.33,5.33,0,0,0-1.52-4.68l-20.24-19.72a5.29,5.29,0,0,1,2.93-9l28-4.06a5.29,5.29,0,0,0,4-2.89l12.51-25.35a5.29,5.29,0,0,1,9.48,0" transform="translate(-12.57 -9.07)"/><path class="cls-1" d="M214,576.45c-9.24,0-17.92-4-23.2-10.56a22,22,0,0,1-3.45-22.25l31.17-76.19c3.95-9.63,14.09-16,25.83-16.33l20.49-.39c14.83,0,27.2,10.07,28.18,22.93l6.48,75.17a22.81,22.81,0,0,1-7.15,18.26,30.32,30.32,0,0,1-20.43,8.17l-10.83.22A30.64,30.64,0,0,1,242,569a30.5,30.5,0,0,1-19.22,7.24Z" transform="translate(-12.57 -9.07)"/><path class="cls-1" d="M290.43,574.88a30.12,30.12,0,0,1-21.47-8.6,22.47,22.47,0,0,1-6.5-19.45l12.33-75.75c1.94-12,13.43-20.85,27.33-21.13l10.72-.21a30.13,30.13,0,0,1,21.46,8.59,22.49,22.49,0,0,1,6.52,19.45L333.94,520a29.68,29.68,0,0,1,17.91,8.41,22.48,22.48,0,0,1,6.51,19.46l-.84,5.07c-2,11.94-13.44,20.82-27.3,21.11Z" transform="translate(-12.57 -9.07)"/><path class="cls-1" d="M349.51,573.68a30.17,30.17,0,0,1-21.47-8.6,22.49,22.49,0,0,1-6.5-19.45l12.33-75.75c1.94-12,13.43-20.85,27.31-21.13l10.74-.22a30.14,30.14,0,0,1,21.46,8.6,22.47,22.47,0,0,1,6.52,19.44L393,518.83a29.68,29.68,0,0,1,17.92,8.41,22.46,22.46,0,0,1,6.49,19.47l-.82,5c-2,12-13.45,20.83-27.32,21.11Z" transform="translate(-12.57 -9.07)"/><path class="cls-1" d="M171.67,665.47c-16.83,0-30.07-4.26-39.35-12.65-5.82-5.27-12.67-14.69-12.22-29.68.25-8.45,5.38-15.83,13.05-20.08a38.83,38.83,0,0,1-5.48-18.93,40.38,40.38,0,0,1,13.08-31.76c6.73-6.25,19.26-13.78,40.69-14.22h1.85c19.59,0,31,6.56,37.11,12.07a35.25,35.25,0,0,1,11.81,27.9c-.18,7.58-4.29,14.3-10.64,18.69a38.32,38.32,0,0,1,6.48,20.69,43.3,43.3,0,0,1-13.81,33.61c-6.81,6.31-19.35,13.92-40.47,14.35l-2.1,0" transform="translate(-12.57 -9.07)"/><path class="cls-1" d="M229.19,663a30.09,30.09,0,0,1-21.48-8.62A22.46,22.46,0,0,1,201.22,635l7.41-45.06a27.7,27.7,0,0,1-8.46-5.8,22.46,22.46,0,0,1-6.61-19.33l.76-5c1.86-12.07,13.36-21,27.35-21.31l49.41-1a30.13,30.13,0,0,1,21.5,8.62,22.48,22.48,0,0,1,6.47,19.49l-.82,4.93c-1.75,10.57-11,18.73-22.66,20.65l-8.2,50.49c-1.94,12-13.42,20.86-27.31,21.14Z" transform="translate(-12.57 -9.07)"/><path class="cls-1" d="M267.52,662.26c-9.25,0-17.94-3.94-23.22-10.55a22,22,0,0,1-3.46-22.24L272,553.26c3.81-9.43,14.2-16,25.83-16.32l20.5-.39c14.64,0,27,9.94,28.17,22.64L353,634.66a22.8,22.8,0,0,1-7.14,18.25,30.32,30.32,0,0,1-20.41,8.17l-10.86.22a30.61,30.61,0,0,1-19.09-6.46,30.56,30.56,0,0,1-19.22,7.25Z" transform="translate(-12.57 -9.07)"/><path class="cls-1" d="M343.94,660.7a30.16,30.16,0,0,1-21.45-8.58,22.49,22.49,0,0,1-6.56-19.39l12.36-75.83c2-12.12,13.61-21,27.58-21.12l24.19-.51,2.12,0c17.52,0,30.92,4.61,39.84,13.7,5.67,5.77,11.87,15.95,9.27,31.7l-.68,4.44c-1.95,12.17-7.32,20.42-13.64,26l5.4,17.61a21.84,21.84,0,0,1-4.46,20.84,29.54,29.54,0,0,1-22.06,10.09l-11.05.23A31.58,31.58,0,0,1,370,656.24a31.24,31.24,0,0,1-15.24,4.26Z" transform="translate(-12.57 -9.07)"/><path class="cls-1" d="M437.9,660c-16.83,0-30.07-4.25-39.34-12.64-5.83-5.27-12.68-14.69-12.23-29.68.25-8.46,5.38-15.83,13.05-20.08a38.83,38.83,0,0,1-5.48-18.93A40.41,40.41,0,0,1,407,546.94c6.73-6.24,19.26-13.77,40.69-14.21l1.85,0c19.59,0,31,6.57,37.12,12.08a35.25,35.25,0,0,1,11.8,27.89c-.18,7.59-4.29,14.31-10.64,18.7a38.32,38.32,0,0,1,6.48,20.69,43.29,43.29,0,0,1-13.82,33.61C473.66,652,461.12,659.59,440,660c-.7,0-1.41,0-2.1,0" transform="translate(-12.57 -9.07)"/><path class="cls-2" d="M275.83,550.41c.18,2.1-1.84,3.89-4.42,3.94l-10.21.22c-2.46,0-4.51-1.5-4.63-3.5l-.68-11c-.15-2-2.19-3.55-4.66-3.5l-15.54.34a4.48,4.48,0,0,0-4.22,2.56l-5.19,13.32a4.44,4.44,0,0,1-4.18,2.58l-8,.17c-3.12.05-5.37-2.44-4.39-4.85l31.15-76.14A4.53,4.53,0,0,1,245,472l19.7-.39c2.41,0,4.45,1.45,4.6,3.41Z" transform="translate(-12.57 -9.07)"/><path class="cls-2" d="M302.66,470.86l10.06-.2c2.78-.06,5,1.91,4.6,4.16L307.21,537c-.37,2.24,1.82,4.22,4.6,4.16l18.45-.37c2.78-.06,5,1.92,4.6,4.16L334,550c-.29,1.79-2.15,3.14-4.37,3.19l-39.11.79c-2.78.06-5-1.91-4.6-4.16l12.34-75.75c.29-1.79,2.14-3.14,4.37-3.19" transform="translate(-12.57 -9.07)"/><path class="cls-2" d="M361.74,469.66l10.06-.21c2.78-.06,5,1.92,4.6,4.16l-10.11,62.16c-.36,2.24,1.82,4.21,4.6,4.16l18.46-.38c2.78,0,5,1.92,4.59,4.17l-.83,5c-.29,1.8-2.14,3.15-4.36,3.19l-39.12.8c-2.78.06-5-1.92-4.6-4.16l12.34-75.75c.29-1.79,2.14-3.15,4.37-3.19" transform="translate(-12.57 -9.07)"/><path class="cls-2" d="M148.25,620.13l9.5-.19c2.48-.05,4.58,1.54,4.62,3.55.15,6.73,4.36,9.13,11.33,9,6.7-.13,11-4.28,10.75-11.8-.2-6.49-4.84-9.18-13.09-13.53-12.74-6.57-19.63-12.92-20-23.58-.43-13.78,9.09-24.06,30.59-24.49,16-.33,26.8,5.28,26.49,18.6,0,1.94-2,3.5-4.42,3.54l-9.22.19c-2.43.05-4.44-1.49-4.62-3.46-.48-5.28-4.43-6.9-9.43-6.8-7,.14-10.42,3.81-10.24,9.71.17,5.45,3.83,8.62,11.79,12.86,13.33,7,21.6,12.07,22,24.35.39,12.51-7,26-31.1,26.48-19.05.38-29.83-6.3-29.39-20.85,0-2,2-3.51,4.42-3.56" transform="translate(-12.57 -9.07)"/><path class="cls-2" d="M230.35,571.52l-8.67.18c-2.77.06-5-1.9-4.6-4.13l.76-4.94c.28-1.81,2.14-3.18,4.37-3.22l48.76-1c2.78,0,5,1.93,4.59,4.17l-.81,4.94c-.3,1.79-2.15,3.14-4.37,3.19l-11.65.24c-2.22,0-4.08,1.4-4.37,3.19l-10.48,64.58a4.3,4.3,0,0,1-4.37,3.19l-10.21.21c-2.78.06-5-1.92-4.59-4.16l10.23-62.27c.37-2.24-1.81-4.22-4.59-4.17" transform="translate(-12.57 -9.07)"/><path class="cls-2" d="M329.32,636.23c.18,2.1-1.84,3.89-4.39,3.94l-10.23.21c-2.47,0-4.51-1.49-4.63-3.5l-.68-11c-.12-2-2.2-3.55-4.63-3.5l-15.58.31a4.56,4.56,0,0,0-4.21,2.59l-5.16,13.32a4.54,4.54,0,0,1-4.22,2.58l-8,.17c-3.14,0-5.4-2.44-4.42-4.85l31.15-76.14a4.54,4.54,0,0,1,4.19-2.51l19.7-.39c2.4-.05,4.45,1.45,4.63,3.4Z" transform="translate(-12.57 -9.07)"/><path class="cls-2" d="M380.62,556.18l-24.47.51a4.27,4.27,0,0,0-4.37,3.18l-12.34,75.76c-.35,2.24,1.84,4.2,4.6,4.15l10.09-.19a4.29,4.29,0,0,0,4.36-3.21l4.75-28.89c.26-1.79,2.13-3.14,4.36-3.19a4.47,4.47,0,0,1,4.51,2.85l8.25,29a4.48,4.48,0,0,0,4.51,2.85l10.32-.22c2.91-.07,5-2.29,4.27-4.56l-9-29.47c-.53-1.73.6-3.52,2.64-4.27,7.75-2.82,12.47-8.32,14-18.15l.71-4.65c2.4-14.53-7.24-21.87-27.18-21.46M389,578.26l-.83,4.54c-1.22,7.43-5.25,10.52-13.8,10.72l-3.53.07c-2.79,0-4.95-1.93-4.6-4.18l2.88-17.83a4.29,4.29,0,0,1,4.36-3.21l3.38-.07c8.7-.17,13.36,2.51,12.14,10" transform="translate(-12.57 -9.07)"/><path class="cls-2" d="M414.47,614.71l9.51-.2c2.48,0,4.58,1.54,4.62,3.56.15,6.73,4.36,9.12,11.34,9,6.68-.14,11-4.28,10.74-11.81-.2-6.48-4.84-9.17-13.09-13.52-12.74-6.58-19.64-12.93-20-23.58-.43-13.78,9.09-24.06,30.59-24.5,16-.33,26.8,5.29,26.49,18.61,0,1.94-2,3.49-4.42,3.54l-9.22.19c-2.43,0-4.44-1.49-4.62-3.46-.48-5.29-4.43-6.9-9.43-6.8-7,.14-10.42,3.8-10.24,9.71.17,5.44,3.82,8.61,11.79,12.85,13.33,7,21.6,12.08,22,24.36.38,12.5-7,26-31.1,26.47-19.05.39-29.83-6.29-29.4-20.85.06-1.94,2-3.5,4.42-3.55" transform="translate(-12.57 -9.07)"/></svg>