<svg id="Layer_1" data-name="Layer 1" xmlns="http://www.w3.org/2000/svg" viewBox="0 0 590.95 590.97"><defs><style>.cls-1{fill:#fff;}.cls-1,.cls-2{fill-rule:evenodd;}.cls-2{fill:#241c5d;}</style></defs><title>buk</title><path class="cls-1" d="M314.48,32.46c-154.83,0-280.78,126-280.78,280.81s126,280.8,280.78,280.8,280.81-126,280.81-280.8S469.32,32.46,314.48,32.46M209.39,319.26l8.09,14.41a24.48,24.48,0,0,1-.17,24.33l-7.23,12.37H169.31l7.2-12.37a24.46,24.46,0,0,0,.2-24.33L172,325.26a24.46,24.46,0,0,1,0-24l4.73-8.41a24.44,24.44,0,0,0-.2-24.32l-7.2-12.37h40.77l7.23,12.37a24.46,24.46,0,0,1,.17,24.32l-8.09,14.41a12.2,12.2,0,0,0,0,12" transform="translate(-19.02 -17.78)"/><path class="cls-1" d="M314.48,608.75C151.56,608.75,19,476.2,19,313.27S151.56,17.78,314.48,17.78,610,150.34,610,313.27,477.41,608.75,314.48,608.75" transform="translate(-19.02 -17.78)"/><path class="cls-2" d="M314.48,52.25c-144.14,0-261,116.85-261,261s116.85,261,261,261,261-116.87,261-261-116.85-261-261-261M143.21,370.37H118.74a12.24,12.24,0,0,1-12.25-12.23V268.4a12.24,12.24,0,0,1,12.25-12.23h24.47Zm66.18-51.11,8.09,14.41a24.48,24.48,0,0,1-.17,24.33l-7.23,12.37H169.31l7.2-12.37a24.46,24.46,0,0,0,.2-24.33L172,325.26a24.46,24.46,0,0,1,0-24l4.73-8.41a24.44,24.44,0,0,0-.2-24.32l-7.2-12.37h40.77l7.23,12.37a24.46,24.46,0,0,1,.17,24.32l-8.09,14.41a12.2,12.2,0,0,0,0,12m178.5,51.11a73.41,73.41,0,1,1-146.81,0V358.14h20.4a12.22,12.22,0,0,1,12.23,12.23,40.78,40.78,0,0,0,81.56,0,12.23,12.23,0,0,1,12.24-12.23h20.38Zm57.1,0H420.53a12.24,12.24,0,0,1-12.23-12.23V268.4a12.24,12.24,0,0,1,12.23-12.23H445Zm44.87,0-25.69-45a24.42,24.42,0,0,1,0-24.26l25.69-45h40.79l-29.17,51a12.3,12.3,0,0,0,0,12.15l29.17,51Z" transform="translate(-19.02 -17.78)"/><path class="cls-1" d="M217.48,333.67a24.48,24.48,0,0,1-.17,24.33l-7.23,12.37H169.31L176.52,358a24.48,24.48,0,0,0,.19-24.33L172,325.26a24.46,24.46,0,0,1,0-24l4.73-8.41a24.46,24.46,0,0,0-.19-24.32l-7.21-12.37h40.77l7.23,12.37a24.46,24.46,0,0,1,.17,24.32l-8.09,14.41a12.2,12.2,0,0,0,0,12Z" transform="translate(-19.02 -17.78)"/></svg>